<svg width="248" height="297" viewBox="0 0 248 297" fill="none" xmlns="http://www.w3.org/2000/svg">
<path d="M193.018 36.6465C191.093 37.2938 189.309 38.0798 187.571 38.9583C187.29 35.8605 186.633 32.7628 185.6 29.7113C178.416 8.76693 155.881 -2.65307 135.27 4.18968C114.659 11.0324 103.767 33.5488 110.95 54.4932C114.377 64.5724 121.42 72.3861 130.012 77.0558L65.2684 187.557C55.1743 179.928 41.7468 177.2 29.0235 181.454C8.41272 188.297 -2.47954 210.813 4.70371 231.758C11.887 252.702 34.4227 264.122 55.0334 257.279C55.5499 257.094 56.0194 256.909 56.5358 256.678C56.7236 260.377 57.3809 264.122 58.6485 267.774C65.8318 288.719 88.3675 300.139 108.978 293.296C129.589 286.453 140.481 263.937 133.298 242.993C129.495 231.85 121.326 223.435 111.42 218.997L179.215 103.271C189.59 113.119 204.755 117.141 219.028 112.379C239.638 105.536 250.531 83.0201 243.347 62.0757C236.164 41.1776 213.628 29.7575 193.018 36.6465Z" fill="#CEF564" stroke="#6C2DF8" stroke-width="3" stroke-miterlimit="10"/>
</svg>
