<svg width="16" height="16" viewBox="0 0 16 16" fill="none" xmlns="http://www.w3.org/2000/svg">
<path d="M14.6438 13.3499L9.29386 8L14.6438 2.65011L14.6506 2.64328L14.6569 2.63595C14.807 2.46059 14.8855 2.23502 14.8766 2.00431C14.8677 1.77361 14.772 1.55477 14.6088 1.39151C14.4455 1.22826 14.2267 1.13262 13.996 1.12371C13.7653 1.1148 13.5397 1.19327 13.3644 1.34345L13.357 1.34973L13.3502 1.35656L8.00041 6.70634L2.65052 1.35L2.65042 1.34989C2.478 1.17747 2.24415 1.0806 2.00031 1.0806C1.75647 1.0806 1.52262 1.17747 1.3502 1.34989C1.17778 1.52231 1.08091 1.75616 1.08091 2C1.08091 2.24384 1.17778 2.47769 1.3502 2.65011L1.3503 2.65022L6.70654 8L1.35655 13.3435C1.26417 13.4245 1.18897 13.5232 1.13544 13.6338C1.08042 13.7475 1.0495 13.8714 1.04463 13.9976C1.03975 14.1239 1.06102 14.2498 1.10711 14.3674C1.15319 14.485 1.2231 14.5919 1.31243 14.6812C1.40177 14.7705 1.5086 14.8404 1.62623 14.8865L1.71743 14.6538L1.62623 14.8865C1.74386 14.9326 1.86975 14.9539 1.99599 14.949C2.12223 14.9441 2.2461 14.9132 2.35983 14.8582C2.47041 14.8047 2.56907 14.7295 2.64999 14.6372L8.0002 9.29345L13.3502 14.6434L13.357 14.6503L13.3644 14.6566C13.5397 14.8067 13.7653 14.8852 13.996 14.8763C14.2267 14.8674 14.4455 14.7717 14.6088 14.6085C14.772 14.4452 14.8677 14.2264 14.8766 13.9957C14.8855 13.765 14.807 13.5394 14.6569 13.3641L14.6506 13.3567L14.6438 13.3499Z" fill="#CEF564" stroke="black" stroke-width="0.5"/>
</svg>
