<svg width="20" height="20" viewBox="0 0 20 20" fill="none" xmlns="http://www.w3.org/2000/svg">
<path d="M18.4592 9.06168L10.8933 9.06168L10.8933 1.49579L10.8933 1.48614L10.8925 1.47651C10.8747 1.24632 10.7707 1.03133 10.6013 0.874503C10.4318 0.717673 10.2095 0.630553 9.9786 0.630553C9.74772 0.630552 9.52535 0.717673 9.35591 0.874504C9.18648 1.03133 9.08247 1.24632 9.06466 1.47651L9.06392 1.48614L9.06392 1.4958L9.06391 9.06153L1.49347 9.05697L1.49331 9.05697C1.24948 9.05697 1.01562 9.15383 0.843205 9.32625C0.670785 9.49867 0.57392 9.73252 0.57392 9.97636C0.57392 10.2202 0.670785 10.4541 0.843205 10.6265C1.01562 10.7989 1.24948 10.8958 1.49331 10.8958L1.49347 10.8958L9.06376 10.8912L9.05921 18.4527C9.05112 18.5752 9.06773 18.6982 9.10811 18.8143C9.14962 18.9336 9.21535 19.043 9.30117 19.1357C9.38698 19.2285 9.49104 19.3024 9.60681 19.353C9.72257 19.4036 9.84755 19.4297 9.97388 19.4297C10.1002 19.4297 10.2252 19.4036 10.341 19.353L10.2408 19.1239L10.341 19.353C10.4567 19.3024 10.5608 19.2285 10.6466 19.1357C10.7324 19.043 10.7981 18.9336 10.8397 18.8143C10.88 18.6982 10.8966 18.5753 10.8886 18.4528L10.8931 10.891H18.4592L18.4688 10.891L18.4784 10.8903C18.7086 10.8725 18.9236 10.7685 19.0805 10.599C19.2373 10.4296 19.3244 10.2072 19.3244 9.97636C19.3244 9.74549 19.2373 9.52311 19.0805 9.35368C18.9236 9.18425 18.7086 9.08024 18.4784 9.06243L18.4688 9.06168L18.4592 9.06168Z" fill="#E969A0" stroke="black" stroke-width="0.5"/>
</svg>
