<svg width="99" height="96" viewBox="0 0 99 96" fill="none" xmlns="http://www.w3.org/2000/svg">
<path d="M98.679 44.7776C98.2752 41.8166 96.9338 39.4002 94.7978 37.7919L94.7689 37.7711C93.7935 37.0509 92.6916 36.5209 91.5204 36.2086L91.3916 36.1741C85.8871 34.7878 79.0382 37.9597 74.3512 44.0685C70.9177 48.5341 69.2301 53.8742 69.8374 58.354C70.2386 61.3166 71.5841 63.734 73.7302 65.3451L73.7536 65.3622C74.7292 66.0821 75.8311 66.6121 77.0021 66.9247C82.5368 68.4077 89.444 65.2514 94.2077 59.0659C97.6134 54.5993 99.2878 49.26 98.679 44.7776ZM68.8326 68.5445C66.1812 65.7923 63.6753 63.1894 62.5904 59.4294C59.6054 49.0264 57.8022 42.7466 49.2747 40.4617C40.7472 38.1768 36.0376 42.7114 28.2389 50.225C25.4143 52.9417 21.9361 53.9434 18.2516 55.0065C14.0275 56.2236 9.66327 57.481 6.84717 61.5021C5.78615 62.9394 5.00958 64.5668 4.5595 66.2963C2.6156 73.5511 6.66932 80.9638 13.5927 82.8189C17.1652 83.7761 21.2995 83.5537 25.6748 83.318C29.8815 83.0913 34.2305 82.8572 37.6882 83.7836C41.1459 84.7101 44.785 87.0846 48.3007 89.3806C51.966 91.7621 55.4172 94.0171 58.9997 94.977C65.9131 96.8294 73.12 92.434 75.0639 85.1793C75.5324 83.4533 75.6668 81.6538 75.4597 79.8781C75.0325 74.9836 71.8801 71.71 68.8326 68.5445ZM29.8415 27.652C31.4292 31.3067 34.0238 33.7798 37.1474 34.6167C37.5738 34.731 38.0082 34.8134 38.4468 34.8633C45.2191 35.6483 51.4144 28.7649 52.5553 19.1776C53.0376 15.1475 52.5167 11.1342 51.1014 7.88267C49.5161 4.23518 46.9169 1.763 43.7954 0.926573C43.3689 0.812329 42.9346 0.72993 42.4959 0.680055C35.7237 -0.105025 29.5284 6.77838 28.3875 16.3658C27.9048 20.3892 28.4267 24.3985 29.8415 27.652ZM61.4531 41.0278C61.8579 41.2039 62.2753 41.3497 62.7017 41.464C65.8273 42.3015 69.3088 41.4565 72.5111 39.0853C75.3611 36.9745 77.8098 33.7612 79.4126 30.0336C83.2171 21.1642 81.2935 12.1054 75.0371 9.39511C74.6323 9.21897 74.215 9.07317 73.7885 8.9589C70.6659 8.12651 67.1789 8.9679 63.9822 11.3341C61.1307 13.4423 58.6729 16.6575 57.0766 20.3934C53.272 29.2627 55.1956 38.3216 61.4531 41.0278ZM15.625 49.7866L15.6559 49.7841C18.316 49.4608 20.6873 48.0415 22.5135 45.678C25.2815 42.0939 26.4905 36.6321 25.7538 31.0491C24.7331 23.3222 20.3319 17.1337 14.8033 15.6523C13.6329 15.3369 12.4136 15.2449 11.2088 15.3813L11.1779 15.3838C8.52602 15.7006 6.15251 17.128 4.32632 19.4916C1.55829 23.0757 0.349347 28.5375 1.08601 34.1205C2.10677 41.8473 6.50791 48.0359 12.0366 49.5173C13.2051 49.8314 14.4223 49.9227 15.625 49.7866Z" fill="#E969A0"/>
</svg>
