<svg width="30" height="29" viewBox="0 0 30 29" fill="none" xmlns="http://www.w3.org/2000/svg">
<path d="M14.0815 1.13274C14.4286 0.326776 15.5714 0.326779 15.9185 1.13274L19.3616 9.12812C19.5064 9.4643 19.8233 9.69452 20.1877 9.72832L28.8558 10.5323C29.7296 10.6133 30.0827 11.7001 29.4234 12.2793L22.8834 18.0246C22.6084 18.2662 22.4873 18.6387 22.5678 18.9958L24.4818 27.488C24.6747 28.3441 23.7502 29.0157 22.9957 28.5677L15.5106 24.1232C15.1958 23.9363 14.8042 23.9363 14.4894 24.1232L7.00429 28.5677C6.24976 29.0157 5.32526 28.3441 5.5182 27.488L7.43219 18.9958C7.51266 18.6387 7.39163 18.2662 7.11664 18.0246L0.576577 12.2793C-0.0826845 11.7001 0.270444 10.6133 1.14422 10.5323L9.81227 9.72832C10.1767 9.69452 10.4936 9.4643 10.6384 9.12812L14.0815 1.13274Z" fill="#CEF564"/>
</svg>
