<svg width="29" height="29" viewBox="0 0 29 29" fill="none" xmlns="http://www.w3.org/2000/svg">
<path d="M27.5496 10.4733C27.246 9.75193 26.7418 9.23186 26.091 8.9699L26.0823 8.96662C25.7861 8.8506 25.4707 8.79124 25.1526 8.79162H25.1176C23.6279 8.81404 22.1071 10.0801 21.3338 11.9422C20.7667 13.3039 20.7016 14.7684 21.1599 15.86C21.4628 16.5819 21.9681 17.1019 22.6217 17.3639L22.6288 17.3666C22.925 17.4826 23.2403 17.5419 23.5585 17.5416C25.0624 17.5416 26.5991 16.2756 27.3866 14.3889C27.9466 13.0288 28.0084 11.5654 27.5496 10.4733ZM21.5974 18.5047C20.7382 17.9884 19.9261 17.5001 19.3956 16.6229C17.9322 14.1947 17.0485 12.7291 14.7313 12.7291C12.4142 12.7291 11.5283 14.1947 10.0616 16.6229C9.53002 17.5012 8.71627 17.9901 7.85439 18.5085C6.86619 19.1024 5.84518 19.716 5.4044 20.9235C5.23304 21.3588 5.14672 21.8229 5.1501 22.2907C5.1501 24.2567 6.68135 25.8563 8.5626 25.8563C9.5333 25.8563 10.5663 25.52 11.6596 25.164C12.7106 24.8216 13.7973 24.4678 14.7368 24.4678C15.6763 24.4678 16.7603 24.8216 17.8075 25.164C18.8985 25.5178 19.9267 25.8541 20.9001 25.8541C22.7786 25.8541 24.3071 24.2545 24.3071 22.2885C24.3087 21.8204 24.2205 21.3563 24.0474 20.9213C23.6066 19.7127 22.585 19.0986 21.5974 18.5047ZM8.93447 10.8069C9.58525 11.6233 10.411 12.0729 11.2598 12.0729C11.3757 12.0729 11.4914 12.0643 11.606 12.0472C13.3762 11.7869 14.4792 9.6267 14.1172 7.12529C13.9657 6.07365 13.561 5.0942 12.9813 4.36795C12.3317 3.55311 11.5048 3.10412 10.6566 3.10412C10.5407 3.10412 10.425 3.11272 10.3104 3.12982C8.54018 3.39014 7.43713 5.55029 7.79916 8.0517C7.9501 9.1017 8.35479 10.0801 8.93447 10.8069ZM17.8573 12.0472C17.9719 12.0643 18.0876 12.0729 18.2035 12.0729C19.0528 12.0729 19.878 11.6233 20.5288 10.8069C21.1079 10.0801 21.5104 9.1017 21.6635 8.05061C22.0256 5.55029 20.9225 3.39014 19.1523 3.12873C19.0377 3.11162 18.922 3.10303 18.8061 3.10303C17.9579 3.10412 17.131 3.55311 16.4813 4.36795C15.9017 5.0942 15.497 6.07365 15.346 7.12639C14.984 9.6267 16.0871 11.7869 17.8573 12.0472ZM6.83393 17.3666L6.84158 17.3639C7.494 17.1019 7.99877 16.5824 8.30119 15.8611C8.75947 14.7673 8.69494 13.3044 8.12893 11.9427C7.34525 10.0582 5.80908 8.79162 4.30682 8.79162C3.98869 8.79116 3.67332 8.85053 3.37713 8.96662L3.36947 8.96936C2.71869 9.22912 2.21393 9.75084 1.9115 10.4722C1.45322 11.5659 1.51775 13.0288 2.08377 14.3905C2.86744 16.2751 4.40361 17.5416 5.90588 17.5416C6.22345 17.5419 6.53825 17.4825 6.83393 17.3666Z" fill="#6C2DF8"/>
</svg>
